<svg xmlns="http://www.w3.org/2000/svg" width="1219" height="1275" fill="none"><g filter="url(#a)"><mask id="b" width="623" height="679" x="273" y="248" fill="#000" maskUnits="userSpaceOnUse"><path fill="#fff" d="M273 248h623v679H273z"/><path d="M418.428 419.547c3.713-29.107 12.07-56.773 25.07-83 11.16-22.51 26.34-43.27 46.53-57.98 3.267-2.38 6.22-4.18 8.86-5.4a1.827 1.827 0 0 1 2.16.48c.853 1.007 1.503 2.463 1.95 4.37 3.553 15.127 4.223 30.5 2.01 46.12a3.052 3.052 0 0 1-.77 1.64 429.122 429.122 0 0 0-14.87 17.12c-18.507 22.487-33.62 47.09-45.34 73.81a2.3 2.3 0 0 1-.874 1.016 2.335 2.335 0 0 1-1.296.364c-7.367-.16-14.88.597-22.54 2.27a.727.727 0 0 1-.848-.461.74.74 0 0 1-.042-.349Z"/><path d="M343.798 540.587a600.384 600.384 0 0 1-25.87 3.06c-3.45.34-13.83 1.38-15.29-3.25-.633-1.987-.55-3.727.25-5.22 10.98-20.553 22.52-38.68 34.62-54.38 7.66-9.947 15.567-18.367 23.72-25.26 22.19-18.78 53.43-23.15 81.46-23.29 13.48-.07 20.11-7.95 26.03-18.73l10.23-21.32c8.34-17.39 18.81-34.32 31.43-48.38 21.753-24.247 48.15-41.657 79.19-52.23 6.7-2.28 12.913-3.75 18.64-4.41 1.72-.193 3.103-.18 4.15.04a1.95 1.95 0 0 1 1.54 1.92c-.087 8.273-.993 16.72-2.72 25.34-4.253 21.167-11 40.993-20.24 59.48-18.153 36.313-44.69 64.273-79.61 83.88-5.413 3.033-8.773 5.27-10.08 6.71-9.15 10.04-6.89 22.89-4.38 35.96.873 4.54 1.35 10.197 1.43 16.97.42 33.83-25.72 56.32-55.35 66.25-7.86 2.64-16.67 5.36-25.74 6.8-18.933 3-38.017 3.807-57.25 2.42-7.433-.54-14.17-1.947-20.21-4.22-10.74-4.04-15.08-16.67-16.57-27.19a2.086 2.086 0 0 1 .43-1.6c5.56-7.08 12.91-13.24 20.4-18.85a.282.282 0 0 0 .089-.331.281.281 0 0 0-.299-.169Zm138-91.46c15.893-7.087 30.28-16.37 43.16-27.85 22.26-19.83 38.97-43.6 48.15-72.14a237.915 237.915 0 0 0 6.68-25.4.393.393 0 0 0-.148-.398.417.417 0 0 0-.432-.042c-24.027 11.773-43.847 28.52-59.46 50.24-8.927 12.413-16.02 24.07-21.28 34.97-5.96 12.36-11.6 28.31-16.9 40.39a.183.183 0 0 0-.008.106.18.18 0 0 0 .049.092.168.168 0 0 0 .09.047c.034.005.068 0 .099-.015Zm-48.26 25.88a93.501 93.501 0 0 0-21.99-.9c-7.5.58-14.29 3.09-19.82 8.01-6.92 6.153-11.863 13.743-14.83 22.77a.56.56 0 0 0 .48.74c7.627.867 15.337.323 23.13-1.63 15.713-3.933 26.833-13.397 33.36-28.39a.433.433 0 0 0-.33-.6ZM554.728 784.017a.208.208 0 0 1-.148.213.208.208 0 0 1-.137-.005.206.206 0 0 1-.105-.088c-10.98-20.613-18.717-42.063-23.21-64.35a.38.38 0 0 0-.386-.288.357.357 0 0 0-.334.328 214.5 214.5 0 0 1-3.39 26.23c-4.51 23.4-14.83 45.31-26.49 66.5-9.347 16.967-21.67 38.86-36.97 65.68-4.1 7.187-7.487 11.947-10.16 14.28-4.28 3.747-8.933 6.34-13.96 7.78-2.373.68-7.707.99-16 .93-18.08-.127-37.393-.153-57.94-.08-3.56.02-6.7-1.41-5.22-5.6 5.19-14.63 16.08-29.25 31.48-33.32 3.57-.94 9.53-.77 12.86-.71 6.1.11 10.3-1.21 13.94-5.92 2.227-2.867 4.243-6.023 6.05-9.47 10.89-20.77 17.91-42.63 17.53-65.62-.173-10.707-3.673-19.78-10.5-27.22-4.013-4.367-9.157-10.05-15.43-17.05-16.18-18.02-28.79-41.13-30.78-64.81-1.33-15.89 4.61-29.88 17.88-39.06 3.273-2.267 7.923-4.95 13.95-8.05 31.08-16 62.59-28.83 84.65-56.6 4.813-6.067 8.397-12.487 10.75-19.26a.407.407 0 0 1 .099-.159.412.412 0 0 1 .344-.122.403.403 0 0 1 .177.061c8.02 5.12 15.39 9.2 24.48 10.67 3.833.62 8.653.99 14.46 1.11 26.54.54 43.24.21 63.47 2.24 44.17 4.44 86.9 20.28 122.34 47.11 53.65 40.61 85.96 104.45 72.59 172.55-4.907 24.98-15.613 47.01-32.12 66.09-2.22 2.567-7.147 7.893-14.78 15.98-1.013 1.073-2.147 2.903-3.4 5.49-1.79 3.67-1.72 9.12-2.45 12.72-.353 1.727-1.407 3.823-3.16 6.29-4.147 5.853-9.483 9.717-16.01 11.59-2.333.673-8.863 1.007-19.59 1-99.067-.067-155.45-.083-169.15-.05-1.433 0-2.52-.54-3.26-1.62a1.325 1.325 0 0 1-.15-1.21c5.95-15.99 18.29-35.79 36.43-38.89 4.32-.74 9.897-1.013 16.73-.82 19.507.567 39.11 2.56 58.81 5.98 15.767 2.74 25.813 4.45 30.14 5.13 5.807.92 11.317 1.363 16.53 1.33 1.787-.007 3.407-.257 4.86-.75a.454.454 0 0 0 .297-.375.428.428 0 0 0-.217-.415c-5.72-3.213-11.95-5.84-18.69-7.88-14.627-4.427-27.633-8.59-39.02-12.49-21.49-7.36-44.5-18.11-58.8-36.54-12.393-15.987-17.947-34.053-16.66-54.2 2.57-40.25 33.39-71.66 71.26-82.54 30.27-8.71 62.38-5.68 91.79 2.92a.345.345 0 0 0 .407-.165.372.372 0 0 0-.077-.445c-3.027-2.587-6.633-5.117-10.82-7.59-36.43-21.48-82.02-20.33-119.44-1.79-21.553 10.673-37.42 26.707-47.6 48.1-3.587 7.54-6.04 16.583-7.36 27.13-1.687 13.447-1.817 26.82-.39 40.12ZM314.838 583.607a.193.193 0 0 1-.019.111.2.2 0 0 1-.291.079c-5.867-3.893-9.907-9.167-12.12-15.82-1.77-5.34-3.18-11.25-4.4-17.47a.356.356 0 0 1 .01-.186.346.346 0 0 1 .274-.233.347.347 0 0 1 .186.019c9.83 3.68 15.13 24.25 16.36 33.5Z"/><path d="m414.168 756.577-.01.01a.32.32 0 0 1-.44 0c-11.34-10.593-18.99-18.05-22.95-22.37-6.627-7.247-12.817-16.067-18.57-26.46-10.133-18.32-15.093-38.747-14.88-61.28.087-9.593 1.197-18.483 3.33-26.67a.472.472 0 0 1 .087-.177.53.53 0 0 1 .153-.133l.77-.45a.333.333 0 0 1 .182-.047.346.346 0 0 1 .302.2.344.344 0 0 1 .026.187c-.773 6.18-.983 15.213-.63 27.1.93 30.69 13.86 58.96 32.12 83.31 7.347 9.8 14.193 18.597 20.54 26.39.047.056.07.128.064.201a.276.276 0 0 1-.094.189ZM779.338 875.887a.737.737 0 0 1-.508-.583.736.736 0 0 1 .288-.717c14.52-10.853 25.563-24.453 33.13-40.8 5.78-12.49 8.34-23.47 13.28-41.21 4-14.34 15.67-28.82 28.02-38.49a38.84 38.84 0 0 1 6.87-4.32 2.086 2.086 0 0 1 1.493-.127c.496.144.919.467 1.187.907 1.8 2.92 3.14 6.02 4.02 9.3 10.21 37.88-.18 76.83-32.95 99.28-15.153 10.38-31.98 16.107-50.48 17.18-1.7.093-3.15-.047-4.35-.42Z"/></mask><path fill="#fff" d="M418.428 419.547c3.713-29.107 12.07-56.773 25.07-83 11.16-22.51 26.34-43.27 46.53-57.98 3.267-2.38 6.22-4.18 8.86-5.4a1.827 1.827 0 0 1 2.16.48c.853 1.007 1.503 2.463 1.95 4.37 3.553 15.127 4.223 30.5 2.01 46.12a3.052 3.052 0 0 1-.77 1.64 429.122 429.122 0 0 0-14.87 17.12c-18.507 22.487-33.62 47.09-45.34 73.81a2.3 2.3 0 0 1-.874 1.016 2.335 2.335 0 0 1-1.296.364c-7.367-.16-14.88.597-22.54 2.27a.727.727 0 0 1-.848-.461.74.74 0 0 1-.042-.349Z"/><path fill="#fff" d="M343.798 540.587a600.384 600.384 0 0 1-25.87 3.06c-3.45.34-13.83 1.38-15.29-3.25-.633-1.987-.55-3.727.25-5.22 10.98-20.553 22.52-38.68 34.62-54.38 7.66-9.947 15.567-18.367 23.72-25.26 22.19-18.78 53.43-23.15 81.46-23.29 13.48-.07 20.11-7.95 26.03-18.73l10.23-21.32c8.34-17.39 18.81-34.32 31.43-48.38 21.753-24.247 48.15-41.657 79.19-52.23 6.7-2.28 12.913-3.75 18.64-4.41 1.72-.193 3.103-.18 4.15.04a1.95 1.95 0 0 1 1.54 1.92c-.087 8.273-.993 16.72-2.72 25.34-4.253 21.167-11 40.993-20.24 59.48-18.153 36.313-44.69 64.273-79.61 83.88-5.413 3.033-8.773 5.27-10.08 6.71-9.15 10.04-6.89 22.89-4.38 35.96.873 4.54 1.35 10.197 1.43 16.97.42 33.83-25.72 56.32-55.35 66.25-7.86 2.64-16.67 5.36-25.74 6.8-18.933 3-38.017 3.807-57.25 2.42-7.433-.54-14.17-1.947-20.21-4.22-10.74-4.04-15.08-16.67-16.57-27.19a2.086 2.086 0 0 1 .43-1.6c5.56-7.08 12.91-13.24 20.4-18.85a.282.282 0 0 0 .089-.331.281.281 0 0 0-.299-.169Zm138-91.46c15.893-7.087 30.28-16.37 43.16-27.85 22.26-19.83 38.97-43.6 48.15-72.14a237.915 237.915 0 0 0 6.68-25.4.393.393 0 0 0-.148-.398.417.417 0 0 0-.432-.042c-24.027 11.773-43.847 28.52-59.46 50.24-8.927 12.413-16.02 24.07-21.28 34.97-5.96 12.36-11.6 28.31-16.9 40.39a.183.183 0 0 0-.008.106.18.18 0 0 0 .049.092.168.168 0 0 0 .09.047c.034.005.068 0 .099-.015Zm-48.26 25.88a93.501 93.501 0 0 0-21.99-.9c-7.5.58-14.29 3.09-19.82 8.01-6.92 6.153-11.863 13.743-14.83 22.77a.56.56 0 0 0 .48.74c7.627.867 15.337.323 23.13-1.63 15.713-3.933 26.833-13.397 33.36-28.39a.433.433 0 0 0-.33-.6ZM554.728 784.017a.208.208 0 0 1-.148.213.208.208 0 0 1-.137-.005.206.206 0 0 1-.105-.088c-10.98-20.613-18.717-42.063-23.21-64.35a.38.38 0 0 0-.386-.288.357.357 0 0 0-.334.328 214.5 214.5 0 0 1-3.39 26.23c-4.51 23.4-14.83 45.31-26.49 66.5-9.347 16.967-21.67 38.86-36.97 65.68-4.1 7.187-7.487 11.947-10.16 14.28-4.28 3.747-8.933 6.34-13.96 7.78-2.373.68-7.707.99-16 .93-18.08-.127-37.393-.153-57.94-.08-3.56.02-6.7-1.41-5.22-5.6 5.19-14.63 16.08-29.25 31.48-33.32 3.57-.94 9.53-.77 12.86-.71 6.1.11 10.3-1.21 13.94-5.92 2.227-2.867 4.243-6.023 6.05-9.47 10.89-20.77 17.91-42.63 17.53-65.62-.173-10.707-3.673-19.78-10.5-27.22-4.013-4.367-9.157-10.05-15.43-17.05-16.18-18.02-28.79-41.13-30.78-64.81-1.33-15.89 4.61-29.88 17.88-39.06 3.273-2.267 7.923-4.95 13.95-8.05 31.08-16 62.59-28.83 84.65-56.6 4.813-6.067 8.397-12.487 10.75-19.26a.407.407 0 0 1 .099-.159.412.412 0 0 1 .344-.122.403.403 0 0 1 .177.061c8.02 5.12 15.39 9.2 24.48 10.67 3.833.62 8.653.99 14.46 1.11 26.54.54 43.24.21 63.47 2.24 44.17 4.44 86.9 20.28 122.34 47.11 53.65 40.61 85.96 104.45 72.59 172.55-4.907 24.98-15.613 47.01-32.12 66.09-2.22 2.567-7.147 7.893-14.78 15.98-1.013 1.073-2.147 2.903-3.4 5.49-1.79 3.67-1.72 9.12-2.45 12.72-.353 1.727-1.407 3.823-3.16 6.29-4.147 5.853-9.483 9.717-16.01 11.59-2.333.673-8.863 1.007-19.59 1-99.067-.067-155.45-.083-169.15-.05-1.433 0-2.52-.54-3.26-1.62a1.325 1.325 0 0 1-.15-1.21c5.95-15.99 18.29-35.79 36.43-38.89 4.32-.74 9.897-1.013 16.73-.82 19.507.567 39.11 2.56 58.81 5.98 15.767 2.74 25.813 4.45 30.14 5.13 5.807.92 11.317 1.363 16.53 1.33 1.787-.007 3.407-.257 4.86-.75a.454.454 0 0 0 .297-.375.428.428 0 0 0-.217-.415c-5.72-3.213-11.95-5.84-18.69-7.88-14.627-4.427-27.633-8.59-39.02-12.49-21.49-7.36-44.5-18.11-58.8-36.54-12.393-15.987-17.947-34.053-16.66-54.2 2.57-40.25 33.39-71.66 71.26-82.54 30.27-8.71 62.38-5.68 91.79 2.92a.345.345 0 0 0 .407-.165.372.372 0 0 0-.077-.445c-3.027-2.587-6.633-5.117-10.82-7.59-36.43-21.48-82.02-20.33-119.44-1.79-21.553 10.673-37.42 26.707-47.6 48.1-3.587 7.54-6.04 16.583-7.36 27.13-1.687 13.447-1.817 26.82-.39 40.12ZM314.838 583.607a.193.193 0 0 1-.019.111.2.2 0 0 1-.291.079c-5.867-3.893-9.907-9.167-12.12-15.82-1.77-5.34-3.18-11.25-4.4-17.47a.356.356 0 0 1 .01-.186.346.346 0 0 1 .274-.233.347.347 0 0 1 .186.019c9.83 3.68 15.13 24.25 16.36 33.5Z"/><path fill="#fff" d="m414.168 756.577-.01.01a.32.32 0 0 1-.44 0c-11.34-10.593-18.99-18.05-22.95-22.37-6.627-7.247-12.817-16.067-18.57-26.46-10.133-18.32-15.093-38.747-14.88-61.28.087-9.593 1.197-18.483 3.33-26.67a.472.472 0 0 1 .087-.177.53.53 0 0 1 .153-.133l.77-.45a.333.333 0 0 1 .182-.047.346.346 0 0 1 .302.2.344.344 0 0 1 .026.187c-.773 6.18-.983 15.213-.63 27.1.93 30.69 13.86 58.96 32.12 83.31 7.347 9.8 14.193 18.597 20.54 26.39.047.056.07.128.064.201a.276.276 0 0 1-.094.189ZM779.338 875.887a.737.737 0 0 1-.508-.583.736.736 0 0 1 .288-.717c14.52-10.853 25.563-24.453 33.13-40.8 5.78-12.49 8.34-23.47 13.28-41.21 4-14.34 15.67-28.82 28.02-38.49a38.84 38.84 0 0 1 6.87-4.32 2.086 2.086 0 0 1 1.493-.127c.496.144.919.467 1.187.907 1.8 2.92 3.14 6.02 4.02 9.3 10.21 37.88-.18 76.83-32.95 99.28-15.153 10.38-31.98 16.107-50.48 17.18-1.7.093-3.15-.047-4.35-.42Z"/><path stroke="#025936" stroke-width="50" d="M418.428 419.547c3.713-29.107 12.07-56.773 25.07-83 11.16-22.51 26.34-43.27 46.53-57.98 3.267-2.38 6.22-4.18 8.86-5.4a1.827 1.827 0 0 1 2.16.48c.853 1.007 1.503 2.463 1.95 4.37 3.553 15.127 4.223 30.5 2.01 46.12a3.052 3.052 0 0 1-.77 1.64 429.122 429.122 0 0 0-14.87 17.12c-18.507 22.487-33.62 47.09-45.34 73.81a2.3 2.3 0 0 1-.874 1.016 2.335 2.335 0 0 1-1.296.364c-7.367-.16-14.88.597-22.54 2.27a.727.727 0 0 1-.848-.461.74.74 0 0 1-.042-.349Z" mask="url(#b)"/><path stroke="#025936" stroke-width="50" d="M343.798 540.587a600.384 600.384 0 0 1-25.87 3.06c-3.45.34-13.83 1.38-15.29-3.25-.633-1.987-.55-3.727.25-5.22 10.98-20.553 22.52-38.68 34.62-54.38 7.66-9.947 15.567-18.367 23.72-25.26 22.19-18.78 53.43-23.15 81.46-23.29 13.48-.07 20.11-7.95 26.03-18.73l10.23-21.32c8.34-17.39 18.81-34.32 31.43-48.38 21.753-24.247 48.15-41.657 79.19-52.23 6.7-2.28 12.913-3.75 18.64-4.41 1.72-.193 3.103-.18 4.15.04a1.95 1.95 0 0 1 1.54 1.92c-.087 8.273-.993 16.72-2.72 25.34-4.253 21.167-11 40.993-20.24 59.48-18.153 36.313-44.69 64.273-79.61 83.88-5.413 3.033-8.773 5.27-10.08 6.71-9.15 10.04-6.89 22.89-4.38 35.96.873 4.54 1.35 10.197 1.43 16.97.42 33.83-25.72 56.32-55.35 66.25-7.86 2.64-16.67 5.36-25.74 6.8-18.933 3-38.017 3.807-57.25 2.42-7.433-.54-14.17-1.947-20.21-4.22-10.74-4.04-15.08-16.67-16.57-27.19a2.086 2.086 0 0 1 .43-1.6c5.56-7.08 12.91-13.24 20.4-18.85a.282.282 0 0 0 .089-.331.281.281 0 0 0-.299-.169Zm138-91.46c15.893-7.087 30.28-16.37 43.16-27.85 22.26-19.83 38.97-43.6 48.15-72.14a237.915 237.915 0 0 0 6.68-25.4.393.393 0 0 0-.148-.398.417.417 0 0 0-.432-.042c-24.027 11.773-43.847 28.52-59.46 50.24-8.927 12.413-16.02 24.07-21.28 34.97-5.96 12.36-11.6 28.31-16.9 40.39a.183.183 0 0 0-.008.106.18.18 0 0 0 .049.092.168.168 0 0 0 .09.047c.034.005.068 0 .099-.015Zm-48.26 25.88a93.501 93.501 0 0 0-21.99-.9c-7.5.58-14.29 3.09-19.82 8.01-6.92 6.153-11.863 13.743-14.83 22.77a.56.56 0 0 0 .48.74c7.627.867 15.337.323 23.13-1.63 15.713-3.933 26.833-13.397 33.36-28.39a.433.433 0 0 0-.33-.6ZM554.728 784.017a.208.208 0 0 1-.148.213.208.208 0 0 1-.137-.005.206.206 0 0 1-.105-.088c-10.98-20.613-18.717-42.063-23.21-64.35a.38.38 0 0 0-.386-.288.357.357 0 0 0-.334.328 214.5 214.5 0 0 1-3.39 26.23c-4.51 23.4-14.83 45.31-26.49 66.5-9.347 16.967-21.67 38.86-36.97 65.68-4.1 7.187-7.487 11.947-10.16 14.28-4.28 3.747-8.933 6.34-13.96 7.78-2.373.68-7.707.99-16 .93-18.08-.127-37.393-.153-57.94-.08-3.56.02-6.7-1.41-5.22-5.6 5.19-14.63 16.08-29.25 31.48-33.32 3.57-.94 9.53-.77 12.86-.71 6.1.11 10.3-1.21 13.94-5.92 2.227-2.867 4.243-6.023 6.05-9.47 10.89-20.77 17.91-42.63 17.53-65.62-.173-10.707-3.673-19.78-10.5-27.22-4.013-4.367-9.157-10.05-15.43-17.05-16.18-18.02-28.79-41.13-30.78-64.81-1.33-15.89 4.61-29.88 17.88-39.06 3.273-2.267 7.923-4.95 13.95-8.05 31.08-16 62.59-28.83 84.65-56.6 4.813-6.067 8.397-12.487 10.75-19.26a.407.407 0 0 1 .099-.159.412.412 0 0 1 .344-.122.403.403 0 0 1 .177.061c8.02 5.12 15.39 9.2 24.48 10.67 3.833.62 8.653.99 14.46 1.11 26.54.54 43.24.21 63.47 2.24 44.17 4.44 86.9 20.28 122.34 47.11 53.65 40.61 85.96 104.45 72.59 172.55-4.907 24.98-15.613 47.01-32.12 66.09-2.22 2.567-7.147 7.893-14.78 15.98-1.013 1.073-2.147 2.903-3.4 5.49-1.79 3.67-1.72 9.12-2.45 12.72-.353 1.727-1.407 3.823-3.16 6.29-4.147 5.853-9.483 9.717-16.01 11.59-2.333.673-8.863 1.007-19.59 1-99.067-.067-155.45-.083-169.15-.05-1.433 0-2.52-.54-3.26-1.62a1.325 1.325 0 0 1-.15-1.21c5.95-15.99 18.29-35.79 36.43-38.89 4.32-.74 9.897-1.013 16.73-.82 19.507.567 39.11 2.56 58.81 5.98 15.767 2.74 25.813 4.45 30.14 5.13 5.807.92 11.317 1.363 16.53 1.33 1.787-.007 3.407-.257 4.86-.75a.454.454 0 0 0 .297-.375.428.428 0 0 0-.217-.415c-5.72-3.213-11.95-5.84-18.69-7.88-14.627-4.427-27.633-8.59-39.02-12.49-21.49-7.36-44.5-18.11-58.8-36.54-12.393-15.987-17.947-34.053-16.66-54.2 2.57-40.25 33.39-71.66 71.26-82.54 30.27-8.71 62.38-5.68 91.79 2.92a.345.345 0 0 0 .407-.165.372.372 0 0 0-.077-.445c-3.027-2.587-6.633-5.117-10.82-7.59-36.43-21.48-82.02-20.33-119.44-1.79-21.553 10.673-37.42 26.707-47.6 48.1-3.587 7.54-6.04 16.583-7.36 27.13-1.687 13.447-1.817 26.82-.39 40.12ZM314.838 583.607a.193.193 0 0 1-.019.111.2.2 0 0 1-.291.079c-5.867-3.893-9.907-9.167-12.12-15.82-1.77-5.34-3.18-11.25-4.4-17.47a.356.356 0 0 1 .01-.186.346.346 0 0 1 .274-.233.347.347 0 0 1 .186.019c9.83 3.68 15.13 24.25 16.36 33.5Z" mask="url(#b)"/><path stroke="#025936" stroke-width="50" d="m414.168 756.577-.01.01a.32.32 0 0 1-.44 0c-11.34-10.593-18.99-18.05-22.95-22.37-6.627-7.247-12.817-16.067-18.57-26.46-10.133-18.32-15.093-38.747-14.88-61.28.087-9.593 1.197-18.483 3.33-26.67a.472.472 0 0 1 .087-.177.53.53 0 0 1 .153-.133l.77-.45a.333.333 0 0 1 .182-.047.346.346 0 0 1 .302.2.344.344 0 0 1 .026.187c-.773 6.18-.983 15.213-.63 27.1.93 30.69 13.86 58.96 32.12 83.31 7.347 9.8 14.193 18.597 20.54 26.39.047.056.07.128.064.201a.276.276 0 0 1-.094.189ZM779.338 875.887a.737.737 0 0 1-.508-.583.736.736 0 0 1 .288-.717c14.52-10.853 25.563-24.453 33.13-40.8 5.78-12.49 8.34-23.47 13.28-41.21 4-14.34 15.67-28.82 28.02-38.49a38.84 38.84 0 0 1 6.87-4.32 2.086 2.086 0 0 1 1.493-.127c.496.144.919.467 1.187.907 1.8 2.92 3.14 6.02 4.02 9.3 10.21 37.88-.18 76.83-32.95 99.28-15.153 10.38-31.98 16.107-50.48 17.18-1.7.093-3.15-.047-4.35-.42Z" mask="url(#b)"/></g><defs><filter id="a" width="1218.86" height="1274.23" x="0" y="0" color-interpolation-filters="sRGB" filterUnits="userSpaceOnUse"><feFlood flood-opacity="0" result="BackgroundImageFix"/><feColorMatrix in="SourceAlpha" result="hardAlpha" values="0 0 0 0 0 0 0 0 0 0 0 0 0 0 0 0 0 0 127 0"/><feMorphology in="SourceAlpha" operator="dilate" radius="48" result="effect1_dropShadow_17_27"/><feOffset dx="25" dy="50"/><feGaussianBlur stdDeviation="125"/><feComposite in2="hardAlpha" operator="out"/><feColorMatrix values="0 0 0 0 0.00392157 0 0 0 0 0.443137 0 0 0 0 0.262745 0 0 0 1 0"/><feBlend in2="BackgroundImageFix" result="effect1_dropShadow_17_27"/><feBlend in="SourceGraphic" in2="effect1_dropShadow_17_27" result="shape"/></filter></defs></svg>